# xmcd
#
# Track frame offsets: 
#        150
#        13447
#        24747
#        36116
#        49895
#        62216
#        72881
#        83135
#        93789
#        103361
#
# Disc length: 1580 seconds
#
# Revision: 0
# Processed by: cddbd v1.5.2PL0 Copyright (c) Steve Scherf et al.
# Submitted via: ExactAudioCopy v1.3
#
DISCID=88062a0a
DTITLE=Mickey Gilley - Gilley's Smokin'
DYEAR=1976
DGENRE=Country/rock
TTITLE0=Don't The Girls All Get Prettier At Closing Time
TTITLE1=There's A Song On The Jukebox
TTITLE2=L-O-V-E
TTITLE3=What Is It
TTITLE4=My Babe
TTITLE5=Bring It On Home To Me
TTITLE6=How's My Ex Treating You
TTITLE7=Lawdy Miss Clawdy
TTITLE8=I Just Can't Get Her Out Of My Mind
TTITLE9=I'll Fly Away
EXTD=
EXTT0=
EXTT1=
EXTT2=
EXTT3=
EXTT4=
EXTT5=
EXTT6=
EXTT7=
EXTT8=
EXTT9=
PLAYORDER=
